# xmcd
#
# Track frame offsets:
#	182
#	26532
#	60680
#	86145
#	101695
#	125310
#	142067
#	168612
#	195140
#	223847
#
# Disc length: 3330 seconds
#
# Revision: 0
# Processed by: cddbd v1.5.2PL0 Copyright (c) Steve Scherf et al.
# Submitted via: dBpowerAMP V4.0
#
DISCID=8e0d000a
DTITLE=Shakey Vick - Little Woman You're So Sweet
DYEAR=1900
DGENRE=Blues
TTITLE0=Good Morning Little School Girl
TTITLE1=Blues WIth A Feeling
TTITLE2=Backbiter
TTITLE3=Come On In My Kitchen
TTITLE4=Crossroads Blues
TTITLE5=Terraplane Blues
TTITLE6=Little Woman You're So Sweet
TTITLE7=I'm Going Upstairs
TTITLE8=Death Valley Blues
TTITLE9=Movin To Chicago
EXTD=
EXTT0=
EXTT1=
EXTT2=
EXTT3=
EXTT4=
EXTT5=
EXTT6=
EXTT7=
EXTT8=
EXTT9=
PLAYORDER=
